<svg xmlns="http://www.w3.org/2000/svg" xmlns:xlink="http://www.w3.org/1999/xlink">


<symbol fill="none" xmlns="http://www.w3.org/2000/svg" viewBox="0 0 46 46" id="love">
    <circle cx="23" cy="23" r="23" fill="white"></circle>
    <g clip-path="url(#clip0_293_860)">
    <path d="M27.3516 14.4375C26.4419 14.4386 25.5422 14.626 24.7077 14.9882C23.8733 15.3504 23.122 15.8797 22.5 16.5434C21.5885 15.5706 20.4057 14.8943 19.105 14.6023C17.8043 14.3102 16.4458 14.4159 15.2059 14.9057C13.9661 15.3954 12.9021 16.2466 12.1521 17.3487C11.402 18.4508 11.0007 19.7529 11 21.0859C11 27.7056 21.677 34.2031 22.1406 34.4583C22.2524 34.5254 22.3804 34.5609 22.5108 34.5609C22.6412 34.5609 22.7691 34.5254 22.8809 34.4583C23.323 34.2031 34 27.7056 34 21.0859C33.9981 19.3232 33.297 17.6333 32.0506 16.3869C30.8042 15.1405 29.1143 14.4394 27.3516 14.4375ZM22.5 32.9956C20.642 31.8097 12.4375 26.2681 12.4375 21.0859C12.4384 19.979 12.7918 18.9012 13.4464 18.0086C14.101 17.116 15.0228 16.4551 16.0783 16.1215C17.1337 15.788 18.268 15.7992 19.3166 16.1536C20.3652 16.5079 21.2738 17.187 21.9106 18.0923C21.977 18.1865 22.065 18.2634 22.1672 18.3164C22.2695 18.3695 22.383 18.3971 22.4982 18.3971C22.6134 18.3971 22.7269 18.3695 22.8292 18.3164C22.9314 18.2634 23.0194 18.1865 23.0858 18.0923C23.7221 17.1854 24.6308 16.5049 25.6802 16.1495C26.7295 15.7942 27.8648 15.7825 28.9212 16.1162C29.9776 16.45 30.9002 17.1117 31.555 18.0053C32.2097 18.899 32.5627 19.9781 32.5625 21.0859C32.5625 26.2645 24.358 31.8061 22.5 32.9956Z" fill="#242424"></path>
    </g>
    <defs>
    <clipPath id="clip0_293_860">
        <rect width="23" height="23" fill="white" transform="translate(11 13)"></rect>
    </clipPath>
    </defs>
</symbol>

<symbol fill="none" xmlns="http://www.w3.org/2000/svg" viewBox="0 0 2 39" id="line">
    <line x1="1" y1="1" x2="0.999998" y2="38" stroke="white" stroke-opacity="0.3" stroke-width="2" stroke-linecap="round"></line>
</symbol>

<symbol fill="none" viewBox="0 0 46 46" id="facebook">
    <g filter="url(#filter0_b_293_871)">
      <circle cx="23" cy="23" r="23" fill="white" fill-opacity="0.5"></circle>
    </g>
    <path d="M26.6644 15.6529H28.6728V12.1549C28.3263 12.1072 27.1346 12 25.7468 12C22.851 12 20.8674 13.8214 20.8674 17.1691V20.25H17.6719V24.1605H20.8674V34H24.7852V24.1614H27.8515L28.3382 20.2509H24.7843V17.5568C24.7852 16.4266 25.0895 15.6529 26.6644 15.6529Z" fill="white"></path>
    <defs>
      <filter id="filter0_b_293_871" x="-4" y="-4" width="54" height="54" filterUnits="userSpaceOnUse" color-interpolation-filters="sRGB">
        <feFlood flood-opacity="0" result="BackgroundImageFix"></feFlood>
        <feGaussianBlur in="BackgroundImageFix" stdDeviation="2"></feGaussianBlur>
        <feComposite in2="SourceAlpha" operator="in" result="effect1_backgroundBlur_293_871"></feComposite>
        <feBlend mode="normal" in="SourceGraphic" in2="effect1_backgroundBlur_293_871" result="shape"></feBlend>
      </filter>
    </defs>
</symbol>

<symbol viewBox="0 0 46 46" id="tik-tok">
    <g filter="url(#filter0_b_293_879)">
      <circle cx="23" cy="23" r="23" fill="white" fill-opacity="0.5"></circle>
    </g>
    <path d="M31.7626 18.0156C30.6212 18.0156 29.5681 17.6375 28.7224 16.9996C27.7524 16.2684 27.0556 15.1957 26.8095 13.9594C26.7485 13.6539 26.7157 13.3387 26.7126 13.0156H23.452V21.925L23.4481 26.8051C23.4481 28.1098 22.5985 29.216 21.4208 29.6051C21.079 29.718 20.7099 29.7715 20.3255 29.7504C19.8349 29.7234 19.3751 29.5754 18.9755 29.3363C18.1251 28.8277 17.5485 27.9051 17.5329 26.8496C17.5083 25.2 18.8419 23.8551 20.4903 23.8551C20.8157 23.8551 21.1282 23.9082 21.4208 24.0047V21.5695V20.6941C21.1122 20.6484 20.7981 20.6246 20.4806 20.6246C18.6763 20.6246 16.9888 21.3746 15.7825 22.7258C14.8708 23.7469 14.3239 25.0496 14.2395 26.4156C14.129 28.2101 14.7856 29.916 16.0591 31.1746C16.2462 31.3594 16.4427 31.5308 16.6481 31.6891C17.7399 32.5293 19.0747 32.9848 20.4806 32.9848C20.7981 32.9848 21.1122 32.9613 21.4208 32.9156C22.7341 32.7211 23.9458 32.1199 24.902 31.1746C26.077 30.0133 26.7263 28.4715 26.7333 26.8305L26.7165 19.543C27.277 19.9754 27.8899 20.3332 28.5477 20.6109C29.5708 21.0426 30.6556 21.2613 31.772 21.2609V18.8934V18.0148C31.7727 18.0156 31.7634 18.0156 31.7626 18.0156Z" fill="white"></path>
    <defs>
      <filter id="filter0_b_293_879" x="-4" y="-4" width="54" height="54" filterUnits="userSpaceOnUse" color-interpolation-filters="sRGB">
        <feFlood flood-opacity="0" result="BackgroundImageFix"></feFlood>
        <feGaussianBlur in="BackgroundImageFix" stdDeviation="2"></feGaussianBlur>
        <feComposite in2="SourceAlpha" operator="in" result="effect1_backgroundBlur_293_879"></feComposite>
        <feBlend mode="normal" in="SourceGraphic" in2="effect1_backgroundBlur_293_879" result="shape"></feBlend>
      </filter>
    </defs>
</symbol>

<symbol viewBox="0 0 46 46" id="inst">
    <g filter="url(#filter0_b_293_865)">
      <circle cx="23" cy="23" r="23" fill="white" fill-opacity="0.5"></circle>
    </g>
    <g clip-path="url(#clip0_293_865)">
      <path d="M27.5862 13H18.4138C15.4286 13 13 15.4286 13 18.4138V27.5863C13 30.5714 15.4286 33 18.4138 33H27.5863C30.5714 33 33 30.5714 33 27.5863V18.4138C33 15.4286 30.5714 13 27.5862 13V13ZM23 28.4686C19.9845 28.4686 17.5314 26.0154 17.5314 23C17.5314 19.9845 19.9845 17.5314 23 17.5314C26.0154 17.5314 28.4686 19.9845 28.4686 23C28.4686 26.0154 26.0154 28.4686 23 28.4686ZM28.5993 18.8211C27.7082 18.8211 26.9834 18.0963 26.9834 17.2052C26.9834 16.314 27.7082 15.5891 28.5993 15.5891C29.4904 15.5891 30.2154 16.314 30.2154 17.2052C30.2154 18.0963 29.4904 18.8211 28.5993 18.8211Z" fill="white"></path>
      <path d="M22.9992 18.7031C20.6305 18.7031 18.7031 20.6303 18.7031 22.9992C18.7031 25.368 20.6305 27.2953 22.9992 27.2953C25.3682 27.2953 27.2953 25.368 27.2953 22.9992C27.2953 20.6303 25.3682 18.7031 22.9992 18.7031Z" fill="white"></path>
      <path d="M28.5997 16.7617C28.3552 16.7617 28.1562 16.9607 28.1562 17.2051C28.1562 17.4496 28.3552 17.6486 28.5997 17.6486C28.8443 17.6486 29.0432 17.4497 29.0432 17.2051C29.0432 16.9605 28.8443 16.7617 28.5997 16.7617Z" fill="white"></path>
    </g>
    <defs>
      <filter id="filter0_b_293_865" x="-4" y="-4" width="54" height="54" filterUnits="userSpaceOnUse" color-interpolation-filters="sRGB">
        <feFlood flood-opacity="0" result="BackgroundImageFix"></feFlood>
        <feGaussianBlur in="BackgroundImageFix" stdDeviation="2"></feGaussianBlur>
        <feComposite in2="SourceAlpha" operator="in" result="effect1_backgroundBlur_293_865"></feComposite>
        <feBlend mode="normal" in="SourceGraphic" in2="effect1_backgroundBlur_293_865" result="shape"></feBlend>
      </filter>
      <clipPath id="clip0_293_865">
        <rect width="20" height="20" fill="white" transform="translate(13 13)"></rect>
      </clipPath>
    </defs>
</symbol>

<symbol viewBox="0 0 46 46" id="youtube">
    <g filter="url(#filter0_b_293_875)">
      <circle cx="23" cy="23" r="23" fill="white" fill-opacity="0.5"></circle>
    </g>
    <path d="M34.6725 16.9088C34.3917 15.8645 33.5683 15.0414 32.5243 14.7602C30.6168 14.2383 22.987 14.2383 22.987 14.2383C22.987 14.2383 15.3575 14.2383 13.45 14.7404C12.426 15.0213 11.5826 15.8647 11.3018 16.9088C10.7998 18.816 10.7998 22.7714 10.7998 22.7714C10.7998 22.7714 10.7998 26.7468 11.3018 28.6341C11.5829 29.6782 12.406 30.5014 13.4502 30.7826C15.3776 31.3046 22.9873 31.3046 22.9873 31.3046C22.9873 31.3046 30.6168 31.3046 32.5243 30.8025C33.5685 30.5215 34.3917 29.6983 34.6728 28.6542C35.1746 26.7468 35.1746 22.7915 35.1746 22.7915C35.1746 22.7915 35.1947 18.816 34.6725 16.9088ZM20.5578 26.4256V19.1173L26.9024 22.7714L20.5578 26.4256Z" fill="white"></path>
    <defs>
      <filter id="filter0_b_293_875" x="-4" y="-4" width="54" height="54" filterUnits="userSpaceOnUse" color-interpolation-filters="sRGB">
        <feFlood flood-opacity="0" result="BackgroundImageFix"></feFlood>
        <feGaussianBlur in="BackgroundImageFix" stdDeviation="2"></feGaussianBlur>
        <feComposite in2="SourceAlpha" operator="in" result="effect1_backgroundBlur_293_875"></feComposite>
        <feBlend mode="normal" in="SourceGraphic" in2="effect1_backgroundBlur_293_875" result="shape"></feBlend>
      </filter>
    </defs>
</symbol>

<symbol viewBox="0 0 1920 1523" id="vectors">
    <path d="M1615 452C1821 281.6 1895.17 -47 1925 -283L2104 407.5L2104.51 408.841C2182.52 613.074 2377.4 1123.24 2147.5 1369.5C1859.5 1678 1280.5 1397 746 1369.5C318.4 1347.5 -130.167 1548.83 -345 1622L-523 262C-480.667 279.333 -212.6 642 111 506C515.5 336 755 487.5 834 520C913 552.5 1357.5 665 1615 452Z" fill="url(#paint0_linear_293_68)"></path>
    <defs>
      <linearGradient id="paint0_linear_293_68" x1="1108" y1="502.5" x2="1108" y2="1101" gradientUnits="userSpaceOnUse">
        <stop stop-opacity="0.7"></stop>
        <stop offset="1" stop-color="#121212" stop-opacity="0"></stop>
      </linearGradient>
    </defs>
</symbol>

<symbol viewBox="0 0 512.000000 512.000000" id="share">
    <g transform="translate(0.000000,512.000000) scale(0.100000,-0.100000)" fill="#4137D0" stroke="none">
      <path d="M3897 5105 c-276 -53 -519 -237 -642 -490 -70 -142 -88 -224 -88
  -395 0 -129 3 -155 27 -234 21 -71 24 -91 14 -97 -7 -5 -341 -206 -743 -448
  l-729 -439 -65 60 c-278 260 -667 320 -1006 153 -230 -112 -408 -329 -476
  -580 -32 -115 -32 -335 0 -450 149 -548 747 -826 1257 -584 103 48 184 110
  276 208 l73 77 700 -358 c384 -197 701 -361 703 -363 3 -2 -4 -37 -14 -77 -27
  -105 -25 -304 5 -413 84 -311 334 -561 646 -646 115 -32 335 -32 450 0 251 68
  468 246 580 476 70 142 88 223 88 395 0 172 -18 253 -88 395 -86 175 -235 325
  -410 410 -357 175 -774 98 -1047 -193 l-73 -79 -700 359 c-385 198 -703 362
  -706 366 -4 4 2 48 13 97 24 112 19 263 -13 375 -11 41 -22 86 -23 99 -1 21
  76 70 734 466 l735 443 69 -65 c281 -265 669 -326 1011 -158 230 112 408 329
  476 580 18 65 22 107 22 225 0 171 -18 253 -88 395 -112 230 -333 411 -580
  475 -106 28 -283 35 -388 15z"></path>
    </g>
</symbol>

<symbol viewBox="0 0 80 80" id="facebook-2">
    <g filter="url(#filter0_bd_293_519)">
      <circle cx="40" cy="32" r="25" fill="white"></circle>
    </g>
    <g clip-path="url(#clip0_293_519)">
      <path d="M43.9834 24.0135H46.1665V20.2114C45.7899 20.1595 44.4946 20.043 42.9861 20.043C39.8385 20.043 37.6824 22.0228 37.6824 25.6615V29.0104H34.209V33.2609H37.6824V43.956H41.9409V33.2619H45.2738L45.8028 29.0114H41.9399V26.083C41.9409 24.8545 42.2717 24.0135 43.9834 24.0135Z" fill="#3B5998"></path>
    </g>
    <defs>
      <filter id="filter0_bd_293_519" x="0" y="0" width="80" height="80" filterUnits="userSpaceOnUse" color-interpolation-filters="sRGB">
        <feFlood flood-opacity="0" result="BackgroundImageFix"></feFlood>
        <feGaussianBlur in="BackgroundImageFix" stdDeviation="2"></feGaussianBlur>
        <feComposite in2="SourceAlpha" operator="in" result="effect1_backgroundBlur_293_519"></feComposite>
        <feColorMatrix in="SourceAlpha" type="matrix" values="0 0 0 0 0 0 0 0 0 0 0 0 0 0 0 0 0 0 127 0" result="hardAlpha"></feColorMatrix>
        <feOffset dy="8"></feOffset>
        <feGaussianBlur stdDeviation="7.5"></feGaussianBlur>
        <feComposite in2="hardAlpha" operator="out"></feComposite>
        <feColorMatrix type="matrix" values="0 0 0 0 0.127725 0 0 0 0 0.0914931 0 0 0 0 0.645833 0 0 0 1 0"></feColorMatrix>
        <feBlend mode="normal" in2="effect1_backgroundBlur_293_519" result="effect2_dropShadow_293_519"></feBlend>
        <feBlend mode="normal" in="SourceGraphic" in2="effect2_dropShadow_293_519" result="shape"></feBlend>
      </filter>
      <clipPath id="clip0_293_519">
        <rect width="23.913" height="23.913" fill="white" transform="translate(28.0439 20.043)"></rect>
      </clipPath>
    </defs>
</symbol>

<symbol viewBox="0 0 81 80" id="tiktok-2">
    <g filter="url(#filter0_bd_293_527)">
      <circle cx="40.8691" cy="32" r="25" fill="white"></circle>
    </g>
    <g clip-path="url(#clip0_293_527)">
      <path d="M50.3938 26.5822C49.1532 26.5822 48.0085 26.1712 47.0892 25.4779C46.035 24.683 45.2775 23.5171 45.01 22.1733C44.9438 21.8412 44.9081 21.4986 44.9047 21.1475H41.3606V30.8316L41.3564 36.136C41.3564 37.5541 40.4329 38.7566 39.1527 39.1795C38.7812 39.3022 38.38 39.3603 37.9622 39.3374C37.4289 39.3081 36.9291 39.1472 36.4948 38.8873C35.5705 38.3345 34.9438 37.3316 34.9268 36.1844C34.9 34.3913 36.3496 32.9295 38.1414 32.9295C38.495 32.9295 38.8347 32.9872 39.1527 33.0921V30.4452V29.4937C38.8173 29.444 38.4759 29.4181 38.1307 29.4181C36.1696 29.4181 34.3353 30.2333 33.0242 31.702C32.0332 32.8119 31.4387 34.2279 31.347 35.7127C31.2269 37.6632 31.9406 39.5174 33.3248 40.8855C33.5282 41.0863 33.7417 41.2727 33.9651 41.4447C35.1518 42.358 36.6026 42.853 38.1307 42.853C38.4759 42.853 38.8173 42.8276 39.1527 42.7779C40.5802 42.5664 41.8973 41.913 42.9367 40.8855C44.2139 39.6232 44.9196 37.9473 44.9272 36.1636L44.9089 28.2424C45.5182 28.7124 46.1844 29.1013 46.8994 29.4032C48.0114 29.8724 49.1905 30.1102 50.404 30.1098V27.5363V26.5814C50.4049 26.5822 50.3947 26.5822 50.3938 26.5822Z" fill="black"></path>
    </g>
    <defs>
      <filter id="filter0_bd_293_527" x="0.869141" y="0" width="80" height="80" filterUnits="userSpaceOnUse" color-interpolation-filters="sRGB">
        <feFlood flood-opacity="0" result="BackgroundImageFix"></feFlood>
        <feGaussianBlur in="BackgroundImageFix" stdDeviation="2"></feGaussianBlur>
        <feComposite in2="SourceAlpha" operator="in" result="effect1_backgroundBlur_293_527"></feComposite>
        <feColorMatrix in="SourceAlpha" type="matrix" values="0 0 0 0 0 0 0 0 0 0 0 0 0 0 0 0 0 0 127 0" result="hardAlpha"></feColorMatrix>
        <feOffset dy="8"></feOffset>
        <feGaussianBlur stdDeviation="7.5"></feGaussianBlur>
        <feComposite in2="hardAlpha" operator="out"></feComposite>
        <feColorMatrix type="matrix" values="0 0 0 0 0.127725 0 0 0 0 0.0914931 0 0 0 0 0.645833 0 0 0 1 0"></feColorMatrix>
        <feBlend mode="normal" in2="effect1_backgroundBlur_293_527" result="effect2_dropShadow_293_527"></feBlend>
        <feBlend mode="normal" in="SourceGraphic" in2="effect2_dropShadow_293_527" result="shape"></feBlend>
      </filter>
      <clipPath id="clip0_293_527">
        <rect width="21.7391" height="21.7391" fill="white" transform="translate(30 21.1309)"></rect>
      </clipPath>
    </defs>
</symbol>

<symbol viewBox="0 0 81 80" id="inst-2">
    <g filter="url(#filter0_bd_293_513)">
      <circle cx="40.7393" cy="32" r="25" fill="white"></circle>
    </g>
    <g clip-path="url(#clip0_293_513)">
      <path d="M45.7246 21.1309H35.7547C32.5099 21.1309 29.8701 23.7706 29.8701 27.0154V36.9855C29.8701 40.2302 32.5099 42.8699 35.7547 42.8699H45.7248C48.9694 42.8699 51.6092 40.2302 51.6092 36.9855V27.0154C51.6092 23.7706 48.9694 21.1309 45.7246 21.1309V21.1309ZM40.7397 37.9445C37.462 37.9445 34.7955 35.2781 34.7955 32.0004C34.7955 28.7228 37.462 26.0563 40.7397 26.0563C44.0173 26.0563 46.6838 28.7228 46.6838 32.0004C46.6838 35.2781 44.0173 37.9445 40.7397 37.9445ZM46.8259 27.4581C45.8573 27.4581 45.0695 26.6703 45.0695 25.7017C45.0695 24.7331 45.8573 23.9451 46.8259 23.9451C47.7945 23.9451 48.5825 24.7331 48.5825 25.7017C48.5825 26.6703 47.7945 27.4581 46.8259 27.4581Z" fill="#C33677"></path>
      <path d="M40.739 27.3301C38.1643 27.3301 36.0693 29.4248 36.0693 31.9998C36.0693 34.5745 38.1643 36.6694 40.739 36.6694C43.3139 36.6694 45.4087 34.5745 45.4087 31.9998C45.4087 29.4248 43.3139 27.3301 40.739 27.3301Z" fill="#C33677"></path>
      <path d="M46.8267 25.2197C46.561 25.2197 46.3447 25.436 46.3447 25.7017C46.3447 25.9674 46.561 26.1837 46.8267 26.1837C47.0926 26.1837 47.3089 25.9676 47.3089 25.7017C47.3089 25.4358 47.0926 25.2197 46.8267 25.2197Z" fill="#C33677"></path>
    </g>
    <defs>
      <filter id="filter0_bd_293_513" x="0.739258" y="0" width="80" height="80" filterUnits="userSpaceOnUse" color-interpolation-filters="sRGB">
        <feFlood flood-opacity="0" result="BackgroundImageFix"></feFlood>
        <feGaussianBlur in="BackgroundImageFix" stdDeviation="2"></feGaussianBlur>
        <feComposite in2="SourceAlpha" operator="in" result="effect1_backgroundBlur_293_513"></feComposite>
        <feColorMatrix in="SourceAlpha" type="matrix" values="0 0 0 0 0 0 0 0 0 0 0 0 0 0 0 0 0 0 127 0" result="hardAlpha"></feColorMatrix>
        <feOffset dy="8"></feOffset>
        <feGaussianBlur stdDeviation="7.5"></feGaussianBlur>
        <feComposite in2="hardAlpha" operator="out"></feComposite>
        <feColorMatrix type="matrix" values="0 0 0 0 0.127725 0 0 0 0 0.0914931 0 0 0 0 0.645833 0 0 0 1 0"></feColorMatrix>
        <feBlend mode="normal" in2="effect1_backgroundBlur_293_513" result="effect2_dropShadow_293_513"></feBlend>
        <feBlend mode="normal" in="SourceGraphic" in2="effect2_dropShadow_293_513" result="shape"></feBlend>
      </filter>
      <clipPath id="clip0_293_513">
        <rect width="21.7391" height="21.7391" fill="white" transform="translate(29.8701 21.1309)"></rect>
      </clipPath>
    </defs>
</symbol>

<symbol viewBox="0 0 81 80" id="youtube-2">
    <g filter="url(#filter0_bd_293_523)">
      <circle cx="40.6084" cy="32" r="25" fill="white"></circle>
    </g>
    <path d="M53.2953 25.3773C52.99 24.2423 52.0951 23.3475 50.9602 23.0419C48.8869 22.4746 40.5936 22.4746 40.5936 22.4746C40.5936 22.4746 32.3007 22.4746 30.2274 23.0204C29.1143 23.3257 28.1976 24.2424 27.8923 25.3773C27.3467 27.4504 27.3467 31.7498 27.3467 31.7498C27.3467 31.7498 27.3467 36.0708 27.8923 38.1223C28.1979 39.2572 29.0925 40.1519 30.2275 40.4575C32.3225 41.025 40.594 41.025 40.594 41.025C40.594 41.025 48.8869 41.025 50.9602 40.4792C52.0953 40.1737 52.99 39.279 53.2956 38.1441C53.8411 36.0708 53.8411 31.7716 53.8411 31.7716C53.8411 31.7716 53.8629 27.4504 53.2953 25.3773ZM37.9532 35.7217V27.7779L44.8495 31.7498L37.9532 35.7217Z" fill="#FF0000"></path>
    <defs>
      <filter id="filter0_bd_293_523" x="0.608398" y="0" width="80" height="80" filterUnits="userSpaceOnUse" color-interpolation-filters="sRGB">
        <feFlood flood-opacity="0" result="BackgroundImageFix"></feFlood>
        <feGaussianBlur in="BackgroundImageFix" stdDeviation="2"></feGaussianBlur>
        <feComposite in2="SourceAlpha" operator="in" result="effect1_backgroundBlur_293_523"></feComposite>
        <feColorMatrix in="SourceAlpha" type="matrix" values="0 0 0 0 0 0 0 0 0 0 0 0 0 0 0 0 0 0 127 0" result="hardAlpha"></feColorMatrix>
        <feOffset dy="8"></feOffset>
        <feGaussianBlur stdDeviation="7.5"></feGaussianBlur>
        <feComposite in2="hardAlpha" operator="out"></feComposite>
        <feColorMatrix type="matrix" values="0 0 0 0 0.127725 0 0 0 0 0.0914931 0 0 0 0 0.645833 0 0 0 1 0"></feColorMatrix>
        <feBlend mode="normal" in2="effect1_backgroundBlur_293_523" result="effect2_dropShadow_293_523"></feBlend>
        <feBlend mode="normal" in="SourceGraphic" in2="effect2_dropShadow_293_523" result="shape"></feBlend>
      </filter>
    </defs>
</symbol>

</svg>



